<svg width="153" height="24" viewBox="0 0 153 24" fill="none" xmlns="http://www.w3.org/2000/svg">
<path d="M36.934 23.9999C40.306 23.9999 42.2216 21.9418 43.0132 19.1397L43.4406 17.6358C44.2322 14.8495 44.0105 12.9972 42.649 11.335L40.6543 8.91282C40.1952 8.35873 39.9894 7.583 40.3219 6.52231L40.5277 5.87324C40.7651 5.11334 41.0184 4.78089 41.4934 4.78089C42.0316 4.78089 42.2216 5.1925 41.9841 6.01572L41.43 7.94712H46.1636L46.6543 6.23735C47.5092 3.27693 46.0211 0.664795 42.0475 0.664795C38.6754 0.664795 36.4907 2.69118 35.715 5.57245L35.5567 6.1582C34.8126 8.92865 35.1609 10.7967 36.5382 12.4748L38.0738 14.3429C38.9604 15.4194 39.087 15.9418 38.6279 17.525L38.3271 18.5698C38.1055 19.3614 37.8839 19.8838 37.3139 19.8838C36.7915 19.8838 36.4749 19.5197 36.744 18.6015L37.5039 15.9418H32.7229L32.0422 18.3007C31.1081 21.5619 33.1662 23.9999 36.934 23.9999Z" fill="#2D6AC5"/>
<path d="M43.2335 23.6833H48.1412L49.9143 18.6806H51.7823L50.7533 23.6833H55.6451L59.4763 0.981418H52.1306L43.2335 23.6833ZM51.2757 14.7228L54.6794 5.00253H54.7111L52.6689 14.7228H51.2757Z" fill="#2D6AC5"/>
<path d="M57.5911 23.6833H66.3615L67.5489 19.5672H63.5278L68.8629 0.981418H64.1135L57.5911 23.6833Z" fill="#2D6AC5"/>
<path d="M68.64 23.6833H77.7904L78.9302 19.7255H74.5292L76.2231 13.8363H79.9117L81.0357 9.87852H77.3471L78.7719 4.9392H83.173L84.3128 0.981418H75.1624L68.64 23.6833Z" fill="#2D6AC5"/>
<path d="M86.2588 23.9999C89.6308 23.9999 91.5464 21.9418 92.3379 19.1397L92.7654 17.6358C93.5569 14.8495 93.3353 12.9972 91.9738 11.335L89.9791 8.91282C89.52 8.35873 89.3142 7.583 89.6466 6.52231L89.8524 5.87324C90.0899 5.11334 90.3432 4.78089 90.8181 4.78089C91.3564 4.78089 91.5464 5.1925 91.3089 6.01572L90.7548 7.94712H95.4883L95.9791 6.23735C96.834 3.27693 95.3458 0.664795 91.3722 0.664795C88.0002 0.664795 85.8155 2.69118 85.0398 5.57245L84.8814 6.1582C84.1374 8.92865 84.4857 10.7967 85.863 12.4748L87.3986 14.3429C88.2851 15.4194 88.4118 15.9418 87.9527 17.525L87.6519 18.5698C87.4303 19.3614 87.2086 19.8838 86.6387 19.8838C86.1163 19.8838 85.7997 19.5197 86.0688 18.6015L86.8287 15.9418H82.0477L81.3669 18.3007C80.4329 21.5619 82.4909 23.9999 86.2588 23.9999Z" fill="#2D6AC5"/>
<path d="M100.205 23.9999C102.231 23.9999 103.925 23.3825 105.065 22.6226L108.247 11.4775H102.342L101.25 15.3403H102.579L101.313 19.7571C101.075 19.868 100.806 19.9313 100.521 19.9313C99.7931 19.9313 99.3815 19.488 99.6506 18.5698L103.387 5.58828C103.545 5.01836 103.783 4.62258 104.289 4.62258C104.922 4.62258 105.049 5.08168 104.891 5.63577L103.83 9.27693H108.785L109.64 6.31651C110.669 2.77034 108.263 0.664795 104.606 0.664795C101.107 0.664795 99.239 2.72284 98.5741 5.08168L95.0913 17.3191C93.8564 21.641 96.0728 23.9999 100.205 23.9999Z" fill="#BE423B"/>
<path d="M106.583 23.6833H111.491L113.264 18.6806H115.132L114.103 23.6833H118.995L122.826 0.981418H115.48L106.583 23.6833ZM114.626 14.7228L118.029 5.00253H118.061L116.019 14.7228H114.626Z" fill="#BE423B"/>
<path d="M120.941 23.6833H125.374L129.331 9.89435H129.363L128.223 23.6833H133.717L140.239 0.981418H135.806L132.339 13.0447H132.308L133.384 0.981418H127.463L120.941 23.6833Z" fill="#BE423B"/>
<path d="M143.293 23.9999C145.32 23.9999 147.014 23.3825 148.153 22.6226L151.335 11.4775H145.43L144.338 15.3403H145.668L144.401 19.7571C144.164 19.868 143.895 19.9313 143.61 19.9313C142.882 19.9313 142.47 19.488 142.739 18.5698L146.475 5.58828C146.634 5.01836 146.871 4.62258 147.378 4.62258C148.011 4.62258 148.138 5.08168 147.979 5.63577L146.919 9.27693H151.874L152.729 6.31651C153.758 2.77034 151.351 0.664795 147.694 0.664795C144.196 0.664795 142.328 2.72284 141.663 5.08168L138.18 17.3191C136.945 21.641 139.161 23.9999 143.293 23.9999Z" fill="#BE423B"/>
<path d="M7.14982 0H18.4908L11.3409 23.6834H0L7.14982 0Z" fill="#2D6AC5"/>
<path d="M18.2953 0H29.6363L22.4865 23.6834H11.1455L18.2953 0Z" fill="#BE423B"/>
</svg>
